<svg xmlns="http://www.w3.org/2000/svg">
    <g>
      <symbol id="stats-flower" viewBox="0 0 33 38">
        <path
          d="M16.5 38C25.57 38 33 30.65 33 21.66A16.4 16.4 0 0 0 16.5 38ZM4.74 16.65c0 2.55 2.07 4.5 4.54 4.5.93 0 1.86-.31 2.58-.82v.3c0 2.56 2.06 4.5 4.54 4.5a4.49 4.49 0 0 0 4.53-4.5v-.3c.73.5 1.65.82 2.58.82a4.49 4.49 0 0 0 4.54-4.5 4.43 4.43 0 0 0-2.58-4.09 4.43 4.43 0 0 0 2.58-4.08 4.54 4.54 0 0 0-7.12-3.68v-.3c0-2.56-2.06-4.5-4.53-4.5a4.49 4.49 0 0 0-4.54 4.5v.3a4.54 4.54 0 0 0-2.58-.82 4.49 4.49 0 0 0-4.54 4.5 4.43 4.43 0 0 0 2.58 4.08 4.61 4.61 0 0 0-2.58 4.1ZM16.5 7.97a4.49 4.49 0 1 1 0 8.99 4.49 4.49 0 1 1 0-9ZM0 21.66C0 30.65 7.42 38 16.5 38A16.4 16.4 0 0 0 0 21.66Z"
          fill="#63D1BB" />
      </symbol>
      <symbol id="stats-cash" viewBox="0 0 47 27">
        <path
          d="M43.066 0H3.933C1.715 0 0 1.681 0 3.857v19.286C0 25.319 1.715 27 3.933 27h39.133C45.286 27 47 25.319 47 23.143V3.857C47 1.78 45.184 0 43.066 0zM3.026 24.725V2.77H43.57v21.956H3.026z"
          fill="#63D1BB" />
        <path
          d="M6.96 20.868h32.677V6.627H6.96v14.241zM23.5 8.506c2.925 0 5.346 2.373 5.346 5.242 0 2.868-2.421 5.241-5.346 5.241-2.925 0-5.346-2.373-5.346-5.242 0-2.967 2.421-5.241 5.346-5.241z"
          fill="#63D1BB" />
      </symbol>
      <symbol id="stats-heart" viewBox="0 0 34 27">
        <path
          d="M34 8.45C34 3.788 29.982 0 25.036 0A9.248 9.248 0 0 0 17 4.662C15.558 1.942 12.467 0 8.964 0 4.018 0 0 3.788 0 8.45 0 17.288 15.146 27 17 27c1.958 0 17-9.615 17-18.55z"
          fill="#63D1BB" />
      </symbol>
      <symbol id="stats-threads" viewBox="0 0 35 34">
        <path
          d="M.306 13.953a16.044 16.044 0 0 0 0 6.232l4.176-3.165-4.176-3.067zM24.852 1.586C19.963-.59 14.259-.59 9.269 1.982l7.638 5.54 7.945-5.936zM34.528 13.062l-4.889 3.66 4.99 3.66c.51-2.373.51-4.946-.1-7.32zM9.37 32.057c4.89 2.473 10.899 2.671 15.991.099l-8.25-6.035-7.74 5.936zM8.046 14.249L1.732 9.698c-.306.692-.612 1.385-.815 2.078l5.398 3.957 1.731-1.484zM18.945 24.835l8.453 6.134c.306-.198.611-.396.815-.594.306-.198.611-.495.917-.791l-8.454-6.134-1.731 1.385zM11.611 11.578L4.074 6.137c-.51.495-.917 1.088-1.324 1.682l7.028 5.144 1.833-1.385zM22.51 22.163l8.25 6.035c.509-.494.916-1.088 1.324-1.681l-7.843-5.739-1.732 1.386zM15.176 8.907L7.333 3.169c-.203.099-.407.297-.61.396-.408.296-.816.593-1.121.989l7.843 5.64 1.731-1.287zM26.074 19.394l7.13 5.144c.306-.692.611-1.286.917-1.979l-6.213-4.55-1.834 1.385zM26.89 2.674L.916 22.362c.203.692.509 1.385.815 2.077L28.722 3.96c-.509-.494-1.12-.89-1.833-1.286zM31.269 6.532c-.306-.395-.611-.791-.917-1.088L2.852 26.22c.204.494.51.89.815 1.187.101.198.305.396.407.494L31.778 7.127c-.204-.198-.306-.396-.51-.594zM33.195 9L6 29.578c.51.494 1.12.989 1.731 1.385l26.482-19.984c-.305-.693-.61-1.385-1.018-1.979z"
          fill="#63D1BB" />
      </symbol>
      <symbol id="stats-rocket" viewBox="0 0 55 23">
        <path
          d="M40.947 5.75A47.823 47.823 0 0 0 28.41 4.065c-2.932 0-5.56.198-7.785.594L13.75 0H.101l5.864 6.147h8.493c-4.651 1.586-6.875 3.47-6.875 3.47v3.767s2.325 1.883 6.976 3.47H5.864L0 23h13.649l6.875-4.66c2.325.397 4.853.595 7.785.595 4.55 0 8.796-.694 12.537-1.685-1.214-1.784-1.921-3.668-1.921-5.85.1-1.982.91-3.865 2.022-5.65zM44.485 6.741c-1.314 1.586-2.022 3.173-2.022 4.759 0 1.586.708 3.172 2.022 4.759C50.955 14.077 55 11.499 55 11.499s-4.044-2.577-10.515-4.758z"
          fill="#63D1BB" />
      </symbol>
      <symbol id="stats-gift" viewBox="0 0 33 32">
        <path
          d="M3.028 32h12.614V18.272H3.028V32zM31.385 8.691h-7.367c.505-.296 1.01-.493 1.413-.79 1.615-1.086 2.422-2.568 2.422-3.95 0-1.186-.605-2.173-1.413-2.865C25.633.396 24.523 0 23.413 0c-1.211 0-2.422.395-3.33 1.086-1.514.988-2.624 2.47-3.432 4.05 0 .099-.1.197-.1.197-.303-.592-.606-1.185-1.01-1.777-.706-.988-1.514-1.877-2.523-2.47C12.01.494 10.9 0 9.688 0c-1.21 0-2.321.494-3.23 1.284-.807.79-1.412 1.876-1.412 3.062 0 .691.202 1.481.605 2.173.606.888 1.413 1.58 2.624 2.172h-6.66C.706 8.691 0 9.383 0 10.271V16.1h15.541V8.69h1.918V16.1H33v-5.827c0-.89-.706-1.58-1.615-1.58zM8.881 6.42c-.606-.395-1.01-.79-1.211-1.087-.202-.395-.303-.691-.303-.987 0-.494.202-.988.706-1.482.404-.395 1.01-.691 1.615-.691.707 0 1.413.197 2.018.691a7.6 7.6 0 0 1 2.624 3.16c.303.692.606 1.383.808 2.075-3.129-.297-5.147-.988-6.257-1.68zm10.596-1.58c.606-.79 1.211-1.482 1.918-1.877.706-.494 1.412-.691 2.018-.691.605 0 1.11.197 1.514.493.403.297.605.692.605 1.186 0 .493-.303 1.284-1.514 2.074-1.11.79-3.128 1.679-6.156 2.271a10.88 10.88 0 0 1 1.615-3.456zM17.46 32h12.614V18.272H17.46V32z"
          fill="#63D1BB" />
      </symbol>
    </g>
    <g>
      <symbol id="logo" viewBox="0 0 102 34">
        <path
          d="M19.22 21.38c-.1-2.68-.5-5.27-.5-7.95 0-2.2.4-4.38-.4-6.47 0-.2.1-.5.1-.7.2-.99-3.3-.5-3.8.5-.3.3-.5.6-.4 1 0 .1.1.2.1.3-.7 3.18-1.6 6.26-2.6 9.34-.4 1.2-.9 2.3-1.3 3.48-.6-1.09-1.2-2.18-1.6-3.38-1.4-3.38-2.6-6.86-4.3-10.14.2-1.5-3.2-1.4-3.9 0-.8 1.69-.7 3.38-.4 5.17.3 1.99.4 3.98.4 6.07 0 3.97.4 7.85.4 11.83-.4.4-.5.9-.1 1.4.2.2.4.4.6.5 1 .69 3.6.09 3.6-1.3 0-4.08-.3-8.16-.4-12.33v-1.2c.1.1.1.3.2.4.6 1.6 1.3 3.18 2.2 4.67.9 1.5 1.3 3.09 1.8 4.68-.2.2-.3.5-.2.7 0 .2.1.3.3.4.6.49 1.8.3 2.5 0 .3-.1.6-.3.8-.4.3-.2.9-.7.7-1.2 0-.1-.1-.2-.1-.3.5-1.29.7-2.58 1-3.88.3-1.39.8-2.78 1.3-4.07.1.6.1 1.2.2 1.89.2 2.58 0 5.07 0 7.55 0 .8.1 1.6.2 2.5.1.29.4 1.78.3 1.88-.8.5-.6 1.1.2 1.3.9.2 2.1-.1 2.8-.7 1.2-1.1.6-2.79.4-4.18-.5-2.39 0-4.97-.1-7.36ZM27.62 22.08c-.1-2-.8-3.88-.8-5.87 0-2.29.2-4.57-.2-6.86-.1-.7-4.1.1-3.9 1 .3 2.08.2 4.17.2 6.36 0 1.99.5 3.88.7 5.86.3 2.1-.1 4.18.1 6.17.1 1 .8 2.69.1 3.58-.4.5 1.5.3 1.6.3.8-.1 1.8-.4 2.3-1 .7-.8.2-2.38.1-3.38-.3-1.99-.1-4.17-.2-6.16ZM43.92 18.8c-2.1-2.79-5.9-.8-8.6-1.5-1.4-.4-1.4-2.28-1.4-3.38 0-1.39-.1-2.68-.3-4.07-.1-1.1 0-2.1.7-2.89.1-.1.9-.3.8-.3.4-.1.7-.1 1.1-.1 1.5-.1 4.6.2 4 2.49-.3 1 3.6.4 3.9-.6 1.2-4.57-7.3-3.68-9.7-3.08-2.2.6-4.6 1.79-4.8 4.38-.1 1.19.3 2.38.3 3.58.1 1.39-.2 2.78.3 4.07 1.1 2.99 5.5 1.6 7.8 1.7 3.8.3 2.7 5.46 2.7 7.85 0 1.3 1.2 3.38.2 4.48-.6.7-2 .7-2.8.8-.8.1-2.2.29-2.7-.5-1-1.4.1-3.79-.1-5.38-.1-.9-4.1-.1-3.9 1 .3 2.58-1.4 6.06 2.4 6.56 2.4.3 5.2-.2 7.5-.9 1.2-.4 2.3-.89 3.2-1.78 1-.9.7-2.3.4-3.48-.5-3.09.9-6.47-1-8.95ZM61.32 18.6c-.1-3.78-.7-7.46-.7-11.24 0-1.99-4-1.3-4 .3 0 3.58.5 7.16.7 10.74v.2c-1.9 0-3.9.2-5.9.2.2-4.58-.6-9.15-.4-13.83 0-.6-3.9-.1-3.9 1-.2 4.47.6 8.85.5 13.32l-.3 6.37c0 1.1.2 2.19.3 3.28.1 1 .5 2.29.2 3.28-.2.8 3.6.3 3.9-.7.5-1.79-.2-3.97-.4-5.76-.2-1.7 0-3.48.1-5.17 2-.1 4.1-.3 6.1 0l.3 4.07c.1 1.2.2 2.29.2 3.48 0 1 .1 2.49-.2 3.48-.8 2.1 3.1 1.9 3.7.4.7-1.89.5-4.17.4-6.16-.2-2.49-.6-4.88-.6-7.26ZM78.22 22.97c-.9-2.78-2.4-5.17-3.6-7.75 1-1.9 2-3.88 2.9-5.87.8-1.8 1.4-3.78 3.1-5.07.6-.4.6-.9-.3-1-.9-.1-2.1.2-2.8.7-1.4 1.3-2.4 2.68-3.1 4.37-.9 2.1-1.9 4.08-2.9 6.07-.1.1-.1.3-.2.4-.5.3-.8.8-.6 1.3a66.9 66.9 0 0 1-2.5 4.57c-.3-5.47-1-11.04-1.2-16.51 0-1.3-4-.5-3.9 1 .2 6.85 1.2 13.62 1.3 20.48v.1c-.3.3-.2.5.1.6 0 1.78-.1 3.47-.2 5.26-.5.7.5 1.1 1.1 1.1h.1c.7 0 2.6-.3 2.7-1.4.2-2.08.3-4.17.2-6.26 1.6-1.69 2.9-3.58 4.1-5.57.8 1.5 1.5 2.99 2 4.58.9 2.68 2.3 5.27 3.1 7.95.5 1.8 4.5.7 3.9-1-1-2.78-2.4-5.26-3.3-8.05ZM101.72 18.4c-.2-.8-1.4-.8-2.3-.8v-1c-.1-2.68-.2-5.36-.4-7.95-.2-2.48-1.6-3.28-4-3.18-2.4.1-5.2.5-7.5 1.4-2.6.99-4.1 2.88-4.6 5.66-.5 2.98.2 6.17.4 9.15.2 3.48.1 6.96.1 10.44 0 .6 3.9 0 3.9-1v-8.25c0-.8-.1-1.59-.1-2.38 1.4-.6 3.7 0 5.1.1 1.1.1 2.2-.2 3.2-.3 0 2.29.1 4.57.2 6.86 0 1.2.5 3.48-.4 4.47-.4.5 1.5.3 1.6.3.8-.1 1.8-.4 2.3-1 .9-1.09.5-3.77.4-5.06-.1-1.9-.1-3.78-.1-5.67 1.1-.2 2.4-.9 2.2-1.8Zm-14.6-.1-.3-3.68c-.2-2.29.1-5.57 2.3-6.96.6-.4 1.7-.3 2.4-.4 1-.2 2-.4 2.8.2 1.2.8.9 3.68.9 4.87 0 2 .2 3.98.3 5.97-.6.1-1.1.1-1.7.1-2.3-.2-4.6-.6-6.7-.1ZM24.22 6.66c.5-.1 1-.2 1.5-.5l.2-.2c.5-.3 1-.79.7-1.39-.5-1.09-.4-2.18-.4-3.38 0-1-1-1.19-1.8-1.19-.7.1-2.2.6-2.2 1.5 0 .99-.1 1.98.1 2.98 0 .1-.1.2-.1.4-.1.2 0 .4.1.59v.4c.1.2.2.4.4.5.6.3 1.1.3 1.5.3Z" />
      </symbol>
      <symbol id="vk" viewBox="0 0 28 22">
        <path
          d="M1 5.84c0-.86.52-1.32 1.55-1.38l3.97.02c.26 0 .44.13.53.38.4 1.26.86 2.34 1.37 3.25.5.92 1.17 1.97 1.99 3.16.07.15.18.23.34.23.13 0 .22-.06.3-.18l.07-.28.03-4.35c0-.3-.07-.5-.23-.6-.15-.1-.43-.18-.83-.23-.32-.05-.48-.23-.48-.55 0-.07 0-.12.02-.15.38-1.09 1.44-1.63 3.2-1.63l1.5-.03c.67 0 1.23.16 1.67.48.44.32.67.82.67 1.5v5.72c.12.08.24.12.34.12.27 0 .5-.15.7-.45 1.95-2.58 3-4.31 3.17-5.18 0-.02.01-.06.05-.13.12-.25.33-.47.61-.65.29-.19.53-.31.75-.38a.55.55 0 0 1 .24-.05h4.13l.26.03c.36 0 .63.16.83.47.07.1.12.21.15.33a2.4 2.4 0 0 1 .06.55v.18a6.11 6.11 0 0 1-.94 2.2c-.5.78-1.15 1.62-1.93 2.53-.79.9-1.27 1.5-1.47 1.78-.16.2-.24.39-.24.56 0 .13.07.28.21.45l3.9 4.63c.2.26.31.56.31.88 0 .38-.16.7-.48.95-.32.25-.7.4-1.14.43l-.46.02h-4.04c-.02 0-.06 0-.11.02a.86.86 0 0 1-.1.01c-.4 0-.76-.16-1.1-.48-.12-.13-.96-1.12-2.5-2.97a1.39 1.39 0 0 0-.38-.32 38.47 38.47 0 0 0-.53 2.24l-.08.42a1.4 1.4 0 0 1-1.12 1.06l-.37.02h-2.61c-1.48 0-2.95-.63-4.41-1.9a19.3 19.3 0 0 1-3.96-4.95 47.51 47.51 0 0 1-3.28-7.05A1.92 1.92 0 0 1 1 5.84Zm16.01 6.51c-.37 0-.7-.1-1.01-.29a.9.9 0 0 1-.45-.79V5.5c0-.34-.1-.58-.27-.72-.18-.14-.49-.21-.93-.21l-1.52.05c-.76 0-1.34.12-1.73.37.78.36 1.17.93 1.17 1.71v4.43a1.5 1.5 0 0 1-.53 1.04c-.32.28-.68.42-1.07.42-.53 0-.94-.24-1.22-.73a26.16 26.16 0 0 1-3.1-5.63l-.23-.66-3.55-.02c-.23 0-.36.01-.38.03-.03.03-.04.1-.04.22 0 .15.01.3.05.48l.56 1.4c1.49 3.64 3.11 6.51 4.86 8.6 1.75 2.1 3.47 3.15 5.16 3.15h2.66c.1 0 .19-.03.24-.09.05-.06.1-.17.13-.34l.06-.25.5-2.21c.15-.3.27-.5.38-.6.2-.2.42-.28.69-.28.43 0 .86.24 1.3.73l2.27 2.71c.14.22.3.33.45.33h4.4c.53 0 .8-.13.8-.38a.47.47 0 0 0-.08-.25l-3.87-4.55c-.3-.35-.45-.73-.45-1.13 0-.4.14-.8.43-1.16.23-.34.68-.9 1.34-1.67.67-.78 1.25-1.51 1.75-2.19.5-.68.82-1.3.98-1.85l.08-.33a.37.37 0 0 1-.02-.16c0-.07-.01-.14-.03-.19h-4.18c-.27.1-.48.25-.64.45l-.16.48c-.45 1.16-1.6 2.94-3.5 5.36-.36.33-.8.5-1.3.5Z" />
      </symbol>
      <symbol id="youtube" viewBox="0 0 28 22">
        <path
          d="m17.85 11.3-5.24-3.5a.65.65 0 0 0-1.01.55v6.98a.65.65 0 0 0 1.01.54l5.24-3.49a.65.65 0 0 0 0-1.09Zm-4.94 2.8V9.58l3.4 2.27-3.4 2.27Zm12.48-8.56a2.4 2.4 0 0 0-1.45-1.63C20.22 2.48 14.25 2.5 14 2.5s-6.22-.02-9.94 1.4a2.4 2.4 0 0 0-1.45 1.64 25.32 25.32 0 0 0-.61 6.3c0 3.26.33 5.22.61 6.3a2.4 2.4 0 0 0 1.45 1.63c3.72 1.43 9.69 1.4 9.94 1.4h.08c.75 0 6.31-.04 9.86-1.4a2.4 2.4 0 0 0 1.45-1.64c.28-1.07.61-3.03.61-6.3 0-3.25-.33-5.22-.61-6.29Zm-1.27 12.27a1.1 1.1 0 0 1-.65.74c-3.5 1.34-9.4 1.32-9.47 1.32-.07 0-5.98.02-9.47-1.32a1.09 1.09 0 0 1-.65-.74c-.27-1-.57-2.85-.57-5.97 0-3.12.3-4.97.57-5.97a1.1 1.1 0 0 1 .65-.74C8.03 3.79 13.93 3.8 14 3.8c.07 0 5.98-.02 9.47 1.32a1.1 1.1 0 0 1 .65.74c.27 1 .57 2.85.57 5.97 0 3.12-.3 4.96-.57 5.97Z" />
      </symbol>
      <symbol id="tg" viewBox="0 0 28 22">
        <path fill-rule="evenodd" clip-rule="evenodd"
          d="M19.46.65c.18.15.27.38.23.61l-2.63 15.76a.66.66 0 0 1-1.01.44l-7.88-5.25a.66.66 0 0 1-.15-.96L10.63 8l-4.36 2.9a.66.66 0 0 1-.65.05L.36 8.3a.66.66 0 0 1 .08-1.2L18.82.53a.66.66 0 0 1 .64.11ZM2.33 7.82 5.86 9.6l7.56-5.04a.66.66 0 0 1 .88.96l-4.8 6 6.43 4.3 2.28-13.66L2.33 7.82Z" />
      </symbol>
      <symbol id="copyright" viewBox="0 0 27 35">
        <path
          d="M13.6 0h-.1L0 1.4v24.7l13.5 8 13.4-8V1.4L13.6 0ZM25 12.1 13.5 5.3v-.1h-.1l-.1-.1v.1L1.9 12.1v-9l11.5-1.2L25 3.1v9ZM13.4 6.8l11.5 6.7-4.5 2.6-7.1-4.2v1.4l5.9 3.5-.9.5-5-3v1.4l3.8 2.3-.8.5-3-1.8v1.4l1.9 1.1-1.8 1.1L2 13.6l11.4-6.8ZM1.9 15.1l11.4 6.8v1l-7.9-4.7v1.4l8 4.8v1.1l-8-4.7v1.4l8 4.8 8.1-4.9v-5.2l3.4-2v10l-11.5 6.9L1.9 25v-9.9Z"
          fill="#63D1BB" />
      </symbol>
    </g>
    <g>
      <symbol id="arrow" viewBox="0 0 50 26">
        <path d="M50 11H7.7l8.1-8.2L13 0 0 13l13 13 2.8-2.8L7.7 15H50v-4Z" fill="#000" />
      </symbol>
      <symbol id="location" viewBox="0 0 67 100">
        <path
          d="M57.13 9.15c-13.1-12.2-34.21-12.2-47.3 0-13.1 12.2-13.1 31.95 0 44.15 0 0 23.64 21.63 23.64 46.63 0-25 23.66-46.63 23.66-46.63 13.1-12.1 13.1-31.95 0-44.15Z"
          fill="#fff" />
        <path
          d="M47.69 45.16c-.61-3.27.1-6.84 0-10.21-.1-3.77-.71-7.44-.71-11.12 0-2.97.5-6.15-.51-9.02.1-.3.1-.7.2-1 .3-1.48-4.67-.69-5.38.6-.5.4-.7.9-.5 1.29.1.1.1.2.1.4-.92 4.46-2.24 8.73-3.76 13.1-.61 1.68-1.22 3.27-1.83 4.85a67.03 67.03 0 0 1-2.33-4.66c-1.93-4.76-3.76-9.62-6.1-14.19.31-2.08-4.56-1.88-5.48 0-1.11 2.38-1.01 4.77-.6 7.25.4 2.87.5 5.65.5 8.53.1 5.55.51 11 .61 16.57-.5.59-.6 1.19-.1 1.88.2.3.5.5.81.8 1.32.99 4.98.2 4.98-1.8 0-5.75-.4-11.4-.61-17.15v-1.7c.1.2.2.4.2.6.91 2.19 1.83 4.37 3.15 6.45 1.22 2.09 1.83 4.27 2.54 6.45-.3.3-.41.6-.3 1-.11.29.1.39.4.49.91.8 2.64.4 3.55 0l1.22-.6c.5-.3 1.22-.99 1.01-1.58 0-.1-.1-.3-.1-.4.71-1.79 1.02-3.57 1.42-5.46.41-1.98 1.12-3.87 1.83-5.75.1.9.1 1.69.2 2.58.3 3.57 0 7.04 0 10.61 0 1.2.1 2.29.3 3.38.11.5.52 2.48.41 2.58-.9.79-.6 1.78.51 1.98 1.32.3 2.95-.1 3.96-1 1.63-1.38.81-3.76.4-5.75Z"
          fill="#6BC6B3" />
      </symbol>
      <symbol id="contacts" viewBox="0 0 47 80">
        <path d="M7.766 3.862v38.52L47 23.071 7.766 3.862zM0 80.9V0h3.833v80.9H0z" fill="#63D1BB" />
        <path d="M3.833.1H0V81h3.833V.1z" fill="#231F20" />
      </symbol>
    </g>
    <g>
      <symbol id="lamp" viewBox="0 0 40 62">
        <g>
          <path
            d="M15.16 37.72c-.3 1-.2 2.19 0 3.58.5 2.59 1.7 5.97 2.4 9.65h5.08c.7-3.58 1.9-6.96 2.5-9.65.3-1.4.3-2.69 0-3.58-.3-.9-.9-1.6-2-2.3h-5.98c-1.2.7-1.8 1.4-2 2.3ZM26.93 57.62H13.17c-1.3 0-2.3 1-2.3 2.19V62h18.36v-2.19c0-1.2-1-2.19-2.3-2.19ZM34.02 2.19H22.34c0-1.2-1-2.19-2.29-2.19-1.3 0-2.3 1-2.3 2.19H6.09L0 27.57c.8-.5 1.6-1 2.6-1 1.39 0 2.19.8 2.89 1.4.7.6 1.2.8 1.4.8.3 0 .8-.3 1.49-.8.7-.5 1.6-1.4 2.9-1.4 1.29 0 2.19.8 2.88 1.4.7.5 1.2.8 1.5.8.1 0 .3-.1.6-.2.2-.1.5-.4.9-.6.5-.4 1.1-1 2-1.2.3-.1.6-.1.89-.1 1.3 0 2.2.8 2.9 1.4.7.5 1.19.8 1.49.8.3 0 .8-.3 1.4-.8.7-.6 1.6-1.4 2.89-1.4 1.4 0 2.2.8 2.9 1.4.29.3.59.5.89.6.2.1.4.2.6.2.3 0 .8-.3 1.4-.9.7-.6 1.59-1.4 2.89-1.4 1 0 1.8.5 2.59 1L34.02 2.19ZM23.44 53.14h-6.88c-.7 0-1.1.5-1.1 1.1 0 .6.5 1.1 1.1 1.1h6.88c.7 0 1.1-.5 1.1-1.1.1-.6-.4-1.1-1.1-1.1Z" />
          <path d="M20.05 28.76c-.1 0-.3.1-.6.2-.2.1-.4.3-.6.4v3.68h2.3v-3.58c-.5-.4-.9-.7-1.1-.7Z" />
        </g>
      </symbol>
      <symbol id="lego" viewBox="0 0 60 60">
        <path
          d="m0 44 27.4 16V36.54L0 20.44v23.55Zm51.3-31.52V15c0 1.81-3.5 3.32-7.7 3.32-4.3 0-7.7-1.5-7.7-3.32v-4.13c.3 1.71 3.6 3.12 7.7 3.12 4.3 0 7.7-1.5 7.7-3.32 0-1.81-3.5-3.32-7.7-3.32h-1l-5-2.92v3.12c0 1.81-3.5 3.32-7.7 3.32-2.7 0-5-.6-6.4-1.5-.2-.2-.4-.41-.7-.61-.4-.4-.6-.8-.6-1.21V4.53l-4.8 2.82h-1.1c-4.3 0-7.7 1.5-7.7 3.32 0 1.81 3.5 3.32 7.7 3.32 4.1 0 7.4-1.4 7.7-3.12V15c0 1.81-3.5 3.32-7.7 3.32-4.3 0-7.7-1.5-7.7-3.32v-2.42l-6 3.53 27.5 16.1 27.4-16-6.2-3.73ZM37.7 22.75c0 1.81-3.5 3.32-7.7 3.32-4.3 0-7.7-1.5-7.7-3.32v-4.13c.3 1.72 3.6 3.13 7.7 3.13s7.4-1.41 7.7-3.13v4.13Zm-5.1 14V60L60 44V20.73l-27.4 16Zm-2.7-30.1c4.3 0 7.7-1.52 7.7-3.33S34.1 0 29.9 0c-4.3 0-7.7 1.51-7.7 3.32 0 1.81 3.4 3.32 7.7 3.32Z" />
      </symbol>
    </g>
    <g>
      <symbol id="search" viewBox="0 0 18 18">
        <path
          d="m17.7 16.06-3.48-3.48a7.63 7.63 0 0 0 1.53-4.7c0-4.4-3.48-7.88-7.88-7.88A7.81 7.81 0 0 0 0 7.88c0 4.4 3.48 7.87 7.88 7.87 1.73 0 3.37-.61 4.7-1.53l3.48 3.47c.2.2.4.31.82.31.6 0 1.12-.51 1.12-1.13 0-.2-.1-.5-.3-.81ZM2.24 7.88a5.67 5.67 0 0 1 5.63-5.63 5.67 5.67 0 0 1 5.62 5.63 5.67 5.67 0 0 1-5.63 5.62 5.67 5.67 0 0 1-5.62-5.63Z" />
      </symbol>
      <symbol id="basket" viewBox="0 0 21 18">
        <path
          d="M20.19 6.86h-3.55L13.19.38c-.2-.38-.61-.48-1.02-.28-.4.19-.5.57-.3.95l3.14 5.8H5.78l3.15-5.8c.2-.38 0-.76-.3-.95A.82.82 0 0 0 7.6.38L4.16 6.86H.8c-.4 0-.81.28-.81.76 0 .38.3.76.81.76h.2l.92 2.86c-.2.1-.3.28-.3.57 0 .38.3.67.7.67L4.06 18h12.88l1.73-5.52c.4 0 .7-.29.7-.67 0-.2-.1-.48-.3-.57L20 8.38h.2c.4 0 .81-.28.81-.76s-.4-.76-.81-.76Zm-4.57 9.62H5.07l-1.21-4.1h13.08l-1.32 4.1Zm1.63-5.53H3.35L2.54 8.3h15.52l-.81 2.66Z" />
      </symbol>
    </g>
        <symbol id="video" viewBox="0 0 32 22">
      <path
        d="m26 10 6-4v16l-6-4v-8Zm-2 0v8c0 2.2-1.8 4-4 4H4c-2.2 0-4-1.8-4-4v-8c0-2.2 1.8-4 4-4h10c0-1.1.9-2 2-2V2H5c-.6 0-1-.4-1-1s.4-1 1-1h12c.6 0 1 .4 1 1v3a2 2 0 0 1 2 2c2.2 0 4 1.8 4 4Zm-12 0H4v8h8v-8Zm8 1c0-.6-.4-1-1-1h-4c-.6 0-1 .4-1 1s.4 1 1 1h4c.6 0 1-.4 1-1Z" />
    </symbol>
    <symbol id="play" viewBox="0 0 101 77">
      <path d="M97.29 18.15s-.9-7.02-3.82-10.13c-3.61-4.01-7.73-4.11-9.54-4.31-13.35-1-33.43-1-33.43-1h-.1s-20.08 0-33.43 1c-1.91.2-5.93.3-9.54 4.31-2.81 3.1-3.82 10.13-3.82 10.13s-.9 8.22-.9 16.44v7.72c0 8.22.9 16.44.9 16.44s.9 7.02 3.82 10.13c3.61 4 8.43 3.9 10.54 4.31 7.63.8 32.53 1 32.53 1s20.08 0 33.43-1c1.91-.2 5.93-.3 9.54-4.31 2.81-3.1 3.82-10.13 3.82-10.13s.9-8.22.9-16.44v-7.72c0-8.22-.9-16.44-.9-16.44Z" fill="#63D1BB"/><path d="M50.4 77c-1 0-25.1-.3-32.73-1h-.2c-.3-.1-.7-.1-1.1-.2-2.52-.3-7.23-.9-10.85-5.02C2.11 67.18 1.1 59.96 1 59.15c0-.3-1-8.52-1-16.74v-7.72c0-8.32.9-16.44.9-16.74v-.1c.1-.8 1.2-7.92 4.52-11.63A15.48 15.48 0 0 1 16.16 1.1c.2 0 .4 0 .5-.1h.1C30.13 0 50.2 0 50.4 0h.1c.2 0 20.28 0 33.63 1h.1c.2 0 .3 0 .5.1 2.21.2 6.73.7 10.75 5.12 3.41 3.6 4.42 10.82 4.52 11.63 0 .3 1 8.52 1 16.84v7.72c0 8.32-.9 16.44-1 16.74v.1c-.1.8-1.2 8.02-4.52 11.63A15.48 15.48 0 0 1 84.74 76c-.2 0-.4 0-.5.1h-.1c-13.36.9-33.54.9-33.74.9Zm-32.03-6.42c7.53.7 31.33 1 32.13 1 .7 0 20.18 0 33.13-1 .2 0 .4 0 .6-.1 1.81-.2 4.62-.5 7.23-3.3 1.8-2.01 2.91-6.92 3.11-8.63.1-.5.9-8.42.9-16.14v-7.72c0-7.82-.9-15.64-1-16.14-.3-2.4-1.4-6.82-3.1-8.52-2.62-2.91-5.43-3.11-7.24-3.31-.2 0-.4 0-.6-.1-13.15-1-32.93-1-33.13-1h-.1c-.2 0-20.08 0-33.13 1-.2 0-.4 0-.6.1-1.81.2-4.62.5-7.23 3.3-1.81 2.01-2.91 6.92-3.12 8.63-.1.6-.9 8.42-.9 16.14v7.72c0 7.72.9 15.64.9 16.14.3 2.4 1.41 6.82 3.12 8.52 2.3 2.61 5.32 3.01 7.53 3.31.6-.1 1 0 1.5.1Z" fill="#fff"/><path d="M38.45 20.55v35.8L68.37 38.5 38.45 20.55Z" fill="#fff"/>
    </symbol>
</svg>
